# xmcd
#
# Track frame offsets: 
#        150
#        19032
#        30607
#
# Disc length: 609 seconds
#
# Revision: 0
# Processed by: cddbd v1.5.2PL0 Copyright (c) Steve Scherf et al.
# Submitted via: ExactAudioCopy v1.3
#
DISCID=18025f03
DTITLE=周華健 - 有故事的人【新創作誕生記】
DYEAR=1998
DGENRE=
TTITLE0=應該（Demo）
TTITLE1=誰來晚餐（吉他版）
TTITLE2=最近比較煩（快樂創作版）
EXTD=
EXTT0=
EXTT1=
EXTT2=
PLAYORDER=
